<svg xmlns="http://www.w3.org/2000/svg" viewBox="0 0 15.5 10.67"><defs><style>.cls-1{fill:#e6e6e6;}</style></defs><title>company_dashboard_menu</title><g id="Layer_2" data-name="Layer 2"><g id="Layer_1-2" data-name="Layer 1"><path class="cls-1" d="M7.5,2.67c1.38,0,2.5,1.79,2.5,4h0c0,2.21-1.12,4-2.5,4h-5c-1.38,0-2.5-1.79-2.5-4H0c0-2.21,1.12-4,2.5-4Z"/><path d="M12,.09a.23.23,0,0,0-.32,0L9.36,1.87,6.4.64a.2.2,0,0,0-.21,0L3,2.93A.22.22,0,0,0,3,3.24a.21.21,0,0,0,.19.1.19.19,0,0,0,.12,0L6.34,1.1l3,1.24a.3.3,0,0,0,.23,0L11.93.41A.22.22,0,0,0,12,.09Z"/><path d="M15.29,7.84h-1V1.29A.23.23,0,0,0,14,1.06H11.93a.22.22,0,0,0-.22.23V7.84h-.77V3.55a.22.22,0,0,0-.23-.22H8.62a.22.22,0,0,0-.22.22V7.84H7.63V3.21A.22.22,0,0,0,7.4,3H5.32a.22.22,0,0,0-.22.22V7.84H4.33V4.54a.22.22,0,0,0-.22-.22H2a.22.22,0,0,0-.22.22v3.3H.73a.23.23,0,1,0,0,.45H15.27a.22.22,0,0,0,.23-.22A.21.21,0,0,0,15.29,7.84Zm-11.42,0H2.24V4.77H3.87Zm3.31,0H5.55V3.44H7.18Zm3.29,0H8.85V3.78h1.62Zm3.32,0H12.16V1.51h1.63Z"/></g></g></svg>