<?xml version="1.0" encoding="utf-8"?>
<!-- Generator: Adobe Illustrator 16.0.0, SVG Export Plug-In . SVG Version: 6.00 Build 0)  -->
<!DOCTYPE svg PUBLIC "-//W3C//DTD SVG 1.1//EN" "http://www.w3.org/Graphics/SVG/1.1/DTD/svg11.dtd">
<svg version="1.1" id="Layer_1" xmlns="http://www.w3.org/2000/svg" xmlns:xlink="http://www.w3.org/1999/xlink" x="0px" y="0px"
	 width="275.957px" height="158.741px" viewBox="0 0 275.957 158.741" enable-background="new 0 0 275.957 158.741"
	 xml:space="preserve">
<line fill="none" stroke="#000000" stroke-width="0.5" stroke-miterlimit="10" x1="11.549" y1="52.792" x2="13.549" y2="52.792"/>
<line fill="none" stroke="#000000" stroke-width="0.5" stroke-miterlimit="10" x1="11.553" y1="85.527" x2="13.553" y2="85.527"/>
<line fill="none" stroke="#000000" stroke-width="0.5" stroke-miterlimit="10" x1="11.549" y1="20.062" x2="13.549" y2="20.062"/>
<rect x="2.552" y="80.454" fill="#0F0D3F" width="6" height="6"/>
<rect x="266.957" y="80.454" fill="#5473E8" width="6" height="6"/>
<g>
	<path fill="#666666" d="M23.593,156.481v-5.695h3.6v0.543h-2.952v1.984h2.792v0.552h-2.792v2.072h2.952v0.544H23.593z"/>
	<path fill="#666666" d="M27.969,156.017l0.216-0.479c0.219,0.17,0.44,0.293,0.664,0.367c0.224,0.074,0.475,0.112,0.752,0.112
		c0.304,0,0.535-0.052,0.692-0.156c0.157-0.104,0.236-0.255,0.236-0.452c0-0.16-0.053-0.287-0.16-0.384
		c-0.106-0.096-0.283-0.171-0.528-0.224l-0.68-0.16c-0.336-0.074-0.596-0.208-0.78-0.4c-0.184-0.191-0.276-0.421-0.276-0.688
		c0-0.352,0.141-0.639,0.424-0.86s0.656-0.332,1.12-0.332c0.283,0,0.549,0.046,0.8,0.136c0.25,0.092,0.461,0.222,0.632,0.393
		l-0.216,0.472c-0.379-0.314-0.784-0.472-1.216-0.472c-0.288,0-0.511,0.055-0.668,0.164c-0.158,0.109-0.236,0.263-0.236,0.46
		c0,0.165,0.049,0.296,0.148,0.392s0.257,0.171,0.476,0.225l0.68,0.168c0.373,0.085,0.65,0.217,0.832,0.396
		c0.181,0.179,0.272,0.412,0.272,0.7c0,0.347-0.142,0.624-0.424,0.832c-0.283,0.208-0.667,0.313-1.152,0.313
		C28.9,156.538,28.364,156.364,27.969,156.017z"/>
	<path fill="#666666" d="M33.009,152.969v2.199c0,0.299,0.062,0.508,0.184,0.629c0.123,0.119,0.296,0.18,0.52,0.18
		c0.149,0,0.293-0.023,0.432-0.072v0.553c-0.166,0.053-0.352,0.08-0.56,0.08c-0.384,0-0.684-0.108-0.9-0.324
		c-0.216-0.217-0.324-0.535-0.324-0.957v-2.287h-0.784v-0.512h0.784v-1.033l0.648-0.231v1.265h1.152v0.512H33.009z"/>
	<path fill="#666666" d="M38.489,152.458v4.023h-0.64v-0.729c-0.117,0.252-0.294,0.444-0.532,0.58
		c-0.237,0.137-0.514,0.205-0.828,0.205c-0.357,0-0.671-0.086-0.94-0.257c-0.27-0.171-0.478-0.411-0.624-0.724
		c-0.147-0.313-0.22-0.676-0.22-1.092s0.075-0.783,0.224-1.101s0.359-0.563,0.628-0.739c0.27-0.177,0.58-0.265,0.932-0.265
		c0.314,0,0.589,0.069,0.824,0.208c0.234,0.139,0.413,0.334,0.536,0.584v-0.695H38.489z M37.529,155.597
		c0.213-0.27,0.32-0.652,0.32-1.148c0-0.495-0.106-0.877-0.32-1.144s-0.518-0.4-0.912-0.4s-0.703,0.138-0.924,0.412
		c-0.222,0.275-0.332,0.657-0.332,1.148c0,0.49,0.109,0.869,0.328,1.136c0.218,0.267,0.528,0.399,0.928,0.399
		C37.011,156,37.315,155.866,37.529,155.597z"/>
	<path fill="#666666" d="M42.689,152.618c0.272,0.17,0.483,0.411,0.632,0.723c0.149,0.313,0.224,0.677,0.224,1.093
		s-0.075,0.782-0.224,1.1c-0.149,0.317-0.36,0.564-0.632,0.74s-0.584,0.265-0.936,0.265c-0.314,0-0.589-0.07-0.824-0.209
		c-0.235-0.139-0.414-0.336-0.536-0.592v0.744h-0.648v-5.889h0.648v2.576c0.117-0.261,0.294-0.461,0.532-0.6
		c0.237-0.139,0.513-0.208,0.828-0.208C42.105,152.361,42.417,152.446,42.689,152.618z M42.545,155.588
		c0.219-0.273,0.328-0.659,0.328-1.155c0-0.485-0.108-0.861-0.324-1.128c-0.216-0.267-0.521-0.4-0.916-0.4
		c-0.4,0-0.707,0.134-0.92,0.4s-0.32,0.648-0.32,1.144c0,0.496,0.106,0.879,0.32,1.148c0.213,0.269,0.52,0.403,0.92,0.403
		C42.022,156,42.326,155.864,42.545,155.588z"/>
	<path fill="#666666" d="M44.545,156.481v-5.889h0.648v5.889H44.545z"/>
	<path fill="#666666" d="M46.385,150.752h0.792v0.736h-0.792V150.752z M46.449,156.481v-4.023h0.648v4.023H46.449z"/>
	<path fill="#666666" d="M48.105,156.017l0.216-0.479c0.219,0.17,0.44,0.293,0.664,0.367c0.224,0.074,0.475,0.112,0.752,0.112
		c0.304,0,0.535-0.052,0.692-0.156c0.157-0.104,0.236-0.255,0.236-0.452c0-0.16-0.053-0.287-0.16-0.384
		c-0.106-0.096-0.283-0.171-0.528-0.224l-0.68-0.16c-0.336-0.074-0.596-0.208-0.78-0.4c-0.184-0.191-0.276-0.421-0.276-0.688
		c0-0.352,0.141-0.639,0.424-0.86s0.656-0.332,1.12-0.332c0.283,0,0.549,0.046,0.8,0.136c0.25,0.092,0.461,0.222,0.632,0.393
		l-0.216,0.472c-0.379-0.314-0.784-0.472-1.216-0.472c-0.288,0-0.511,0.055-0.668,0.164c-0.158,0.109-0.236,0.263-0.236,0.46
		c0,0.165,0.049,0.296,0.148,0.392s0.257,0.171,0.476,0.225l0.68,0.168c0.373,0.085,0.65,0.217,0.832,0.396
		c0.181,0.179,0.272,0.412,0.272,0.7c0,0.347-0.142,0.624-0.424,0.832c-0.283,0.208-0.667,0.313-1.152,0.313
		C49.036,156.538,48.5,156.364,48.105,156.017z"/>
	<path fill="#666666" d="M55.777,153.954v2.527h-0.648v-2.496c0-0.373-0.075-0.646-0.224-0.82c-0.149-0.173-0.384-0.26-0.704-0.26
		c-0.373,0-0.672,0.115-0.896,0.344c-0.224,0.23-0.336,0.539-0.336,0.928v2.305h-0.648v-5.889h0.648v2.521
		c0.128-0.245,0.311-0.432,0.548-0.56c0.237-0.129,0.508-0.192,0.812-0.192C55.294,152.361,55.777,152.891,55.777,153.954z"/>
	<path fill="#666666" d="M62.8,153.954v2.527h-0.648v-2.496c0-0.379-0.065-0.653-0.196-0.824c-0.131-0.17-0.343-0.256-0.636-0.256
		c-0.341,0-0.608,0.115-0.8,0.344c-0.192,0.23-0.288,0.542-0.288,0.937v2.296h-0.648v-2.496c0-0.373-0.067-0.646-0.2-0.82
		c-0.133-0.173-0.347-0.26-0.64-0.26c-0.341,0-0.609,0.115-0.804,0.344c-0.195,0.23-0.292,0.542-0.292,0.937v2.296H57v-2.896
		c0-0.416-0.021-0.791-0.064-1.127h0.616l0.064,0.703c0.112-0.256,0.278-0.453,0.5-0.592c0.221-0.139,0.479-0.208,0.772-0.208
		c0.32,0,0.581,0.063,0.784,0.192c0.203,0.128,0.352,0.325,0.448,0.592c0.123-0.24,0.302-0.431,0.54-0.572
		c0.237-0.141,0.505-0.212,0.804-0.212C62.355,152.361,62.8,152.891,62.8,153.954z"/>
	<path fill="#666666" d="M67.401,154.449h-2.952c0.005,0.513,0.124,0.899,0.356,1.16S65.374,156,65.817,156
		c0.469,0,0.901-0.156,1.296-0.472L67.329,156c-0.176,0.166-0.401,0.297-0.676,0.393c-0.275,0.096-0.556,0.145-0.844,0.145
		c-0.629,0-1.123-0.186-1.48-0.557s-0.536-0.879-0.536-1.523c0-0.411,0.08-0.775,0.24-1.093s0.384-0.563,0.672-0.739
		c0.288-0.177,0.616-0.265,0.984-0.265c0.534,0,0.952,0.175,1.256,0.524c0.304,0.35,0.456,0.83,0.456,1.443V154.449z
		 M64.876,153.168c-0.21,0.203-0.345,0.488-0.404,0.856h2.344c-0.032-0.378-0.143-0.667-0.332-0.864
		c-0.189-0.197-0.452-0.296-0.788-0.296S65.087,152.966,64.876,153.168z"/>
	<path fill="#666666" d="M71.84,153.954v2.527h-0.648v-2.496c0-0.373-0.075-0.646-0.224-0.82c-0.149-0.173-0.384-0.26-0.704-0.26
		c-0.373,0-0.672,0.115-0.896,0.344c-0.224,0.23-0.336,0.539-0.336,0.928v2.305h-0.648v-2.896c0-0.416-0.021-0.791-0.064-1.127
		h0.616L69,153.176c0.123-0.261,0.306-0.462,0.552-0.604c0.245-0.141,0.525-0.212,0.84-0.212
		C71.357,152.361,71.84,152.891,71.84,153.954z"/>
	<path fill="#666666" d="M73.928,152.969v2.199c0,0.299,0.062,0.508,0.184,0.629c0.123,0.119,0.296,0.18,0.52,0.18
		c0.149,0,0.293-0.023,0.432-0.072v0.553c-0.166,0.053-0.352,0.08-0.56,0.08c-0.384,0-0.684-0.108-0.9-0.324
		c-0.216-0.217-0.324-0.535-0.324-0.957v-2.287h-0.784v-0.512h0.784v-1.033l0.648-0.231v1.265h1.152v0.512H73.928z"/>
</g>
<g>
	<path fill="#666666" d="M98.683,153.736v2.64c-0.224,0.117-0.518,0.212-0.88,0.284c-0.363,0.071-0.731,0.108-1.104,0.108
		c-0.565,0-1.054-0.116-1.464-0.349c-0.411-0.231-0.724-0.566-0.94-1.004c-0.216-0.437-0.324-0.96-0.324-1.567
		c0-0.604,0.108-1.121,0.324-1.557c0.216-0.435,0.525-0.768,0.928-1c0.402-0.232,0.878-0.348,1.428-0.348c0.4,0,0.767,0.06,1.1,0.18
		s0.62,0.301,0.86,0.54l-0.256,0.504c-0.277-0.234-0.548-0.403-0.812-0.508c-0.264-0.104-0.561-0.156-0.892-0.156
		c-0.645,0-1.14,0.202-1.484,0.604c-0.344,0.402-0.516,0.982-0.516,1.74c0,0.773,0.176,1.361,0.528,1.764s0.864,0.604,1.536,0.604
		c0.475,0,0.93-0.074,1.368-0.224v-1.736h-1.416v-0.52H98.683z"/>
	<path fill="#666666" d="M102.187,152.631l-0.016,0.592c-0.123-0.042-0.264-0.063-0.424-0.063c-0.389,0-0.679,0.121-0.868,0.364
		c-0.189,0.242-0.284,0.537-0.284,0.884v2.296h-0.648v-2.896c0-0.416-0.021-0.791-0.064-1.127h0.616l0.064,0.744
		c0.101-0.272,0.264-0.48,0.488-0.625c0.224-0.144,0.48-0.216,0.768-0.216C101.952,152.583,102.075,152.6,102.187,152.631z"/>
	<path fill="#666666" d="M103.427,156.503c-0.288-0.171-0.511-0.413-0.668-0.728c-0.158-0.314-0.236-0.684-0.236-1.104
		s0.079-0.789,0.236-1.104c0.157-0.314,0.38-0.557,0.668-0.727c0.288-0.172,0.621-0.257,1-0.257c0.378,0,0.712,0.085,1,0.257
		c0.288,0.17,0.511,0.412,0.668,0.727c0.157,0.315,0.236,0.684,0.236,1.104s-0.079,0.79-0.236,1.104s-0.38,0.557-0.668,0.728
		s-0.622,0.257-1,0.257C104.048,156.76,103.715,156.674,103.427,156.503z M105.347,155.828c0.213-0.265,0.32-0.649,0.32-1.156
		c0-0.49-0.109-0.87-0.328-1.14c-0.219-0.27-0.523-0.404-0.912-0.404c-0.395,0-0.702,0.135-0.92,0.404
		c-0.219,0.27-0.328,0.649-0.328,1.14c0,0.507,0.108,0.892,0.324,1.156c0.216,0.265,0.524,0.396,0.924,0.396
		S105.134,156.092,105.347,155.828z"/>
	<path fill="#666666" d="M112.763,152.68h0.64l-1.488,4.023h-0.624l-1.152-3.145l-1.144,3.145h-0.624l-1.488-4.023h0.68l1.136,3.248
		l1.176-3.248h0.568l1.16,3.256L112.763,152.68z"/>
	<path fill="#666666" d="M115.194,153.192v2.199c0,0.299,0.062,0.508,0.184,0.629c0.123,0.119,0.296,0.18,0.52,0.18
		c0.149,0,0.293-0.023,0.432-0.072v0.553c-0.166,0.053-0.352,0.08-0.56,0.08c-0.384,0-0.684-0.108-0.9-0.324
		c-0.216-0.217-0.324-0.535-0.324-0.957v-2.287h-0.784v-0.512h0.784v-1.033l0.648-0.231v1.265h1.152v0.512H115.194z"/>
	<path fill="#666666" d="M120.587,154.176v2.527h-0.648v-2.496c0-0.373-0.075-0.646-0.224-0.82c-0.149-0.173-0.384-0.26-0.704-0.26
		c-0.373,0-0.672,0.115-0.896,0.344c-0.224,0.23-0.336,0.539-0.336,0.928v2.305h-0.648v-5.889h0.648v2.521
		c0.128-0.245,0.311-0.432,0.548-0.56c0.237-0.129,0.508-0.192,0.812-0.192C120.104,152.583,120.587,153.114,120.587,154.176z"/>
</g>
<g>
	<path fill="#666666" d="M160.724,151.229h0.544v5.696h-0.608v-4.231l-1.848,4.231h-0.464l-1.864-4.2l0.008,4.2h-0.607v-5.696h0.544
		l2.16,4.912L160.724,151.229z"/>
	<path fill="#666666" d="M166.14,152.901v4.024H165.5v-0.728c-0.117,0.25-0.294,0.443-0.531,0.58
		c-0.237,0.135-0.514,0.203-0.828,0.203c-0.357,0-0.671-0.085-0.939-0.256c-0.27-0.17-0.479-0.412-0.625-0.724
		s-0.22-0.677-0.22-1.093s0.075-0.782,0.224-1.1c0.15-0.316,0.359-0.564,0.629-0.74s0.58-0.264,0.932-0.264
		c0.314,0,0.59,0.069,0.824,0.208s0.413,0.333,0.535,0.584v-0.696H166.14z M165.18,156.042c0.214-0.27,0.319-0.652,0.319-1.148
		s-0.105-0.877-0.319-1.144s-0.518-0.4-0.912-0.4s-0.702,0.138-0.924,0.412s-0.332,0.657-0.332,1.147
		c0,0.491,0.109,0.87,0.328,1.137c0.218,0.267,0.528,0.4,0.928,0.4C164.663,156.446,164.966,156.311,165.18,156.042z"/>
	<path fill="#666666" d="M168.259,153.413v2.201c0,0.299,0.063,0.508,0.185,0.627c0.122,0.121,0.296,0.181,0.521,0.181
		c0.148,0,0.293-0.024,0.432-0.072v0.552c-0.166,0.054-0.352,0.08-0.561,0.08c-0.383,0-0.684-0.107-0.899-0.324
		c-0.216-0.215-0.324-0.534-0.324-0.955v-2.289h-0.784v-0.512h0.784v-1.031l0.647-0.232v1.264h1.152v0.512H168.259z"/>
	<path fill="#666666" d="M173.564,152.901v4.024h-0.633v-0.696c-0.127,0.246-0.307,0.432-0.535,0.561
		c-0.229,0.128-0.488,0.191-0.776,0.191c-0.475,0-0.835-0.133-1.08-0.4c-0.245-0.266-0.368-0.66-0.368-1.184v-2.496h0.648v2.48
		c0,0.363,0.074,0.629,0.225,0.8c0.148,0.171,0.375,0.257,0.68,0.257c0.357,0,0.645-0.117,0.863-0.349s0.328-0.537,0.328-0.916
		v-2.272H173.564z"/>
	<path fill="#666666" d="M177.052,152.854l-0.016,0.592c-0.123-0.043-0.265-0.064-0.425-0.064c-0.39,0-0.679,0.121-0.868,0.363
		c-0.189,0.244-0.283,0.538-0.283,0.885v2.296h-0.648v-2.896c0-0.416-0.021-0.793-0.064-1.129h0.616l0.064,0.744
		c0.101-0.271,0.264-0.479,0.487-0.623c0.225-0.145,0.48-0.217,0.769-0.217C176.818,152.805,176.94,152.821,177.052,152.854z"/>
	<path fill="#666666" d="M177.644,151.198h0.792v0.735h-0.792V151.198z M177.708,156.925v-4.024h0.647v4.024H177.708z"/>
	<path fill="#666666" d="M180.476,153.413v2.201c0,0.299,0.061,0.508,0.184,0.627c0.123,0.121,0.296,0.181,0.52,0.181
		c0.15,0,0.294-0.024,0.433-0.072v0.552c-0.165,0.054-0.353,0.08-0.56,0.08c-0.385,0-0.685-0.107-0.9-0.324
		c-0.216-0.215-0.324-0.534-0.324-0.955v-2.289h-0.783v-0.512h0.783v-1.031l0.648-0.232v1.264h1.152v0.512H180.476z"/>
	<path fill="#666666" d="M185.996,152.901l-1.88,4.393c-0.197,0.459-0.445,0.795-0.743,1.008c-0.299,0.213-0.668,0.359-1.104,0.439
		l-0.136-0.504c0.379-0.085,0.665-0.198,0.859-0.34c0.195-0.141,0.356-0.358,0.484-0.652l0.16-0.359l-1.704-3.984h0.68l1.36,3.32
		l1.376-3.32H185.996z"/>
</g>
<g>
	<path fill="#666666" d="M229.078,151.452h1.912c0.912,0,1.617,0.247,2.115,0.74c0.499,0.494,0.748,1.193,0.748,2.1
		c0,0.912-0.249,1.616-0.748,2.112c-0.498,0.496-1.203,0.744-2.115,0.744h-1.912V151.452z M230.95,156.588
		c0.735,0,1.289-0.192,1.659-0.576c0.371-0.385,0.557-0.957,0.557-1.721c0-1.52-0.738-2.279-2.216-2.279h-1.216v4.576H230.95z"/>
	<path fill="#666666" d="M238.333,155.116h-2.952c0.005,0.512,0.124,0.898,0.356,1.16c0.231,0.262,0.568,0.393,1.012,0.393
		c0.469,0,0.9-0.158,1.296-0.473l0.216,0.473c-0.176,0.165-0.401,0.295-0.676,0.392c-0.275,0.096-0.557,0.144-0.844,0.144
		c-0.63,0-1.123-0.186-1.48-0.556s-0.536-0.878-0.536-1.524c0-0.41,0.08-0.774,0.24-1.092c0.16-0.316,0.384-0.564,0.672-0.74
		s0.616-0.264,0.983-0.264c0.534,0,0.953,0.175,1.257,0.523c0.304,0.35,0.456,0.832,0.456,1.445V155.116z M235.809,153.836
		c-0.21,0.202-0.345,0.487-0.403,0.855h2.344c-0.032-0.379-0.143-0.666-0.332-0.863s-0.452-0.297-0.788-0.297
		S236.02,153.633,235.809,153.836z"/>
	<path fill="#666666" d="M239.986,156.948c-0.291-0.17-0.516-0.412-0.672-0.724c-0.158-0.312-0.236-0.677-0.236-1.093
		s0.08-0.782,0.24-1.1c0.16-0.316,0.388-0.564,0.684-0.74s0.641-0.264,1.036-0.264c0.272,0,0.534,0.047,0.788,0.141
		c0.253,0.093,0.463,0.223,0.627,0.388l-0.215,0.479c-0.203-0.16-0.399-0.277-0.588-0.352c-0.189-0.074-0.383-0.112-0.58-0.112
		c-0.411,0-0.734,0.138-0.969,0.412s-0.352,0.657-0.352,1.147c0,0.486,0.115,0.863,0.348,1.133s0.557,0.404,0.973,0.404
		c0.197,0,0.391-0.037,0.58-0.112c0.188-0.075,0.385-0.192,0.588-0.353l0.215,0.48c-0.17,0.16-0.385,0.287-0.643,0.38
		c-0.26,0.093-0.527,0.14-0.805,0.14C240.617,157.204,240.276,157.119,239.986,156.948z"/>
	<path fill="#666666" d="M243.277,157.148v-5.888h0.648v5.888H243.277z"/>
	<path fill="#666666" d="M245.117,151.42h0.793v0.735h-0.793V151.42z M245.181,157.148v-4.024h0.648v4.024H245.181z"/>
	<path fill="#666666" d="M250.542,154.62v2.528h-0.647v-2.496c0-0.373-0.075-0.646-0.225-0.819
		c-0.149-0.174-0.384-0.261-0.704-0.261c-0.373,0-0.672,0.114-0.896,0.345c-0.225,0.229-0.336,0.538-0.336,0.928v2.304h-0.648
		v-2.896c0-0.416-0.021-0.793-0.064-1.129h0.616l0.064,0.721c0.122-0.262,0.306-0.463,0.552-0.604
		c0.245-0.142,0.525-0.212,0.84-0.212C250.058,153.028,250.542,153.559,250.542,154.62z"/>
	<path fill="#666666" d="M255.133,155.116h-2.952c0.006,0.512,0.124,0.898,0.355,1.16c0.232,0.262,0.57,0.393,1.013,0.393
		c0.47,0,0.901-0.158,1.296-0.473l0.216,0.473c-0.176,0.165-0.401,0.295-0.676,0.392c-0.274,0.096-0.556,0.144-0.845,0.144
		c-0.629,0-1.122-0.186-1.479-0.556s-0.536-0.878-0.536-1.524c0-0.41,0.08-0.774,0.24-1.092c0.16-0.316,0.384-0.564,0.672-0.74
		s0.616-0.264,0.984-0.264c0.533,0,0.951,0.175,1.256,0.523c0.304,0.35,0.456,0.832,0.456,1.445V155.116z M252.609,153.836
		c-0.211,0.202-0.346,0.487-0.404,0.855h2.345c-0.032-0.379-0.144-0.666-0.332-0.863c-0.189-0.197-0.452-0.297-0.788-0.297
		S252.82,153.633,252.609,153.836z"/>
</g>
<line fill="none" stroke="#000000" stroke-width="0.25" stroke-miterlimit="5" x1="131.803" y1="118.15" x2="131.803" y2="0.25"/>
<line fill="none" stroke="#000000" stroke-width="0.25" stroke-miterlimit="5" x1="211.97" y1="118.15" x2="211.97" y2="0.25"/>
<line fill="none" stroke="#000000" stroke-width="0.25" stroke-miterlimit="5" x1="131.803" y1="131.372" x2="131.803" y2="118.142"/>
<line fill="none" stroke="#000000" stroke-width="0.25" stroke-miterlimit="5" x1="211.97" y1="131.372" x2="211.97" y2="118.142"/>
<path fill="none" stroke="#0F0D3F" stroke-miterlimit="10" d="M11.31,116.961c13.044,0,29.16-1.741,57.104-11.336
	c1.313-0.451,2.65-0.919,4.016-1.405c0.607-0.216,3.402-1.265,6.138-4.256c16.687-18.24,64.218-82.148,73.359-89.951
	c15.581-13.299,29.655-0.657,32.957,2.707c0.042,0.044,9.888,14.059,11.97,16.655c19.156,23.896,54.852,66.778,59.842,73.436
	c4.866,6.492,4.428,4.8,4.428,4.8"/>
<line fill="none" stroke="#000000" stroke-width="0.25" stroke-miterlimit="5" x1="81.449" y1="131.26" x2="81.449" y2="118.26"/>
<g>
	<path fill="#666666" d="M5.076,114.7c-0.339-0.494-0.508-1.217-0.508-2.172s0.169-1.68,0.508-2.172
		c0.338-0.494,0.833-0.74,1.484-0.74s1.146,0.246,1.484,0.74c0.339,0.492,0.508,1.215,0.508,2.164c0,0.954-0.169,1.68-0.508,2.176
		c-0.338,0.496-0.833,0.744-1.484,0.744S5.415,115.193,5.076,114.7z M7.564,114.311c0.216-0.384,0.324-0.98,0.324-1.791
		c0-0.806-0.107-1.398-0.32-1.776c-0.213-0.379-0.55-0.568-1.008-0.568c-0.453,0-0.788,0.189-1.004,0.568
		c-0.216,0.378-0.324,0.971-0.324,1.776c0,0.805,0.108,1.4,0.324,1.787s0.551,0.58,1.004,0.58S7.348,114.696,7.564,114.311z"/>
</g>
<rect x="212.833" y="109.375" fill="#5473E8" width="8" height="8"/>
<rect x="222.848" y="110.875" fill="#5473E8" width="8" height="6.5"/>
<rect x="232.862" y="112.855" fill="#5473E8" width="8" height="4.521"/>
<rect x="242.876" y="114.125" fill="#5473E8" width="8" height="3.25"/>
<rect x="252.89" y="116.185" fill="#5473E8" width="8" height="1.19"/>
<rect x="162.764" y="100.792" fill="#5473E8" width="8" height="16.583"/>
<rect x="172.778" y="102.538" fill="#5473E8" width="8" height="14.838"/>
<rect x="182.792" y="104.375" fill="#5473E8" width="8" height="13"/>
<rect x="192.806" y="106.376" fill="#5473E8" width="8" height="10.999"/>
<rect x="202.82" y="108.334" fill="#5473E8" width="8" height="9.041"/>
<rect x="82.652" y="102.538" fill="#5473E8" width="8" height="14.838"/>
<rect x="92.666" y="98.292" fill="#5473E8" width="8" height="19.084"/>
<rect x="102.679" y="94.429" fill="#5473E8" width="8" height="22.946"/>
<rect x="112.694" y="93.504" fill="#5473E8" width="8" height="23.871"/>
<rect x="122.708" y="94.43" fill="#5473E8" width="8" height="22.946"/>
<rect x="12.553" y="119.375" fill="#5473E8" width="8" height="6.666"/>
<rect x="22.568" y="119.375" fill="#5473E8" width="8" height="8.584"/>
<rect x="32.582" y="119.375" fill="#5473E8" width="8" height="9.421"/>
<rect x="42.595" y="119.375" fill="#5473E8" width="8" height="5.333"/>
<rect x="52.609" y="119.375" fill="#5473E8" width="8" height="1.416"/>
<rect x="132.722" y="95.376" fill="#5473E8" width="8" height="22"/>
<rect x="142.736" y="97.625" fill="#5473E8" width="8" height="19.75"/>
<rect x="152.75" y="99.292" fill="#5473E8" width="8" height="18.084"/>
<rect x="72.637" y="111.209" fill="#5473E8" width="8" height="6.166"/>
<rect x="62.624" y="115.375" fill="#5473E8" width="8" height="2"/>
<g>
	<path fill="#666666" d="M7.624,67.399v0.696l-1.896,0.704c-0.235,0.085-0.392,0.204-0.472,0.356s-0.12,0.367-0.12,0.644v1.424
		h2.488v0.648H1.928v-2.264c0-0.613,0.136-1.084,0.408-1.412S3,67.703,3.512,67.703c0.373,0,0.687,0.098,0.94,0.292
		c0.253,0.195,0.433,0.476,0.54,0.844c0.026-0.166,0.097-0.307,0.212-0.424c0.115-0.117,0.279-0.216,0.492-0.296L7.624,67.399z
		 M4.592,69.663c0-0.875-0.357-1.312-1.072-1.312c-0.352,0-0.615,0.107-0.788,0.32s-0.26,0.544-0.26,0.992v1.56h2.12V69.663z"/>
	<path fill="#666666" d="M5.592,63.039v2.952c0.512-0.005,0.899-0.124,1.16-0.356s0.392-0.569,0.392-1.012
		c0-0.469-0.157-0.901-0.472-1.296l0.472-0.216c0.166,0.176,0.296,0.401,0.392,0.676c0.096,0.275,0.144,0.556,0.144,0.844
		c0,0.629-0.186,1.123-0.556,1.48S6.246,66.647,5.6,66.647c-0.411,0-0.775-0.08-1.092-0.24c-0.317-0.16-0.564-0.384-0.74-0.672
		c-0.176-0.288-0.264-0.616-0.264-0.984c0-0.534,0.175-0.952,0.524-1.256c0.35-0.304,0.831-0.456,1.444-0.456H5.592z M4.312,65.563
		c0.203,0.21,0.488,0.345,0.856,0.404v-2.344c-0.378,0.032-0.667,0.143-0.864,0.332c-0.197,0.189-0.296,0.452-0.296,0.788
		S4.109,65.352,4.312,65.563z"/>
	<path fill="#666666" d="M3.608,59.215v-0.648l4.016,1.736v0.616l-4.016,1.712v-0.68l3.312-1.36L3.608,59.215z"/>
	<path fill="#666666" d="M5.592,54.535v2.952c0.512-0.005,0.899-0.124,1.16-0.356s0.392-0.569,0.392-1.012
		c0-0.469-0.157-0.901-0.472-1.296l0.472-0.216c0.166,0.176,0.296,0.401,0.392,0.676c0.096,0.275,0.144,0.556,0.144,0.844
		c0,0.629-0.186,1.123-0.556,1.48S6.246,58.143,5.6,58.143c-0.411,0-0.775-0.08-1.092-0.24c-0.317-0.16-0.564-0.384-0.74-0.672
		c-0.176-0.288-0.264-0.616-0.264-0.984c0-0.534,0.175-0.952,0.524-1.256c0.35-0.304,0.831-0.456,1.444-0.456H5.592z M4.312,57.059
		c0.203,0.21,0.488,0.345,0.856,0.404v-2.344c-0.378,0.032-0.667,0.143-0.864,0.332c-0.197,0.189-0.296,0.452-0.296,0.788
		S4.109,56.848,4.312,57.059z"/>
	<path fill="#666666" d="M5.096,50.095h2.528v0.648H5.128c-0.373,0-0.646,0.075-0.82,0.224s-0.26,0.384-0.26,0.704
		c0,0.373,0.115,0.672,0.344,0.896s0.539,0.336,0.928,0.336h2.304v0.648H4.728c-0.416,0-0.792,0.021-1.128,0.064v-0.616l0.72-0.064
		c-0.261-0.123-0.462-0.306-0.604-0.552c-0.141-0.245-0.212-0.525-0.212-0.84C3.504,50.578,4.035,50.095,5.096,50.095z"/>
	<path fill="#666666" d="M3.6,45.503h4.024v0.632H6.928c0.245,0.128,0.432,0.307,0.56,0.536C7.616,46.9,7.68,47.159,7.68,47.447
		c0,0.475-0.133,0.834-0.4,1.08c-0.267,0.245-0.661,0.368-1.184,0.368H3.6v-0.648h2.48c0.363,0,0.629-0.075,0.8-0.224
		c0.171-0.149,0.256-0.376,0.256-0.68c0-0.357-0.116-0.646-0.348-0.864s-0.537-0.328-0.916-0.328H3.6V45.503z"/>
	<path fill="#666666" d="M5.592,40.887v2.952c0.512-0.005,0.899-0.124,1.16-0.356s0.392-0.569,0.392-1.012
		c0-0.469-0.157-0.901-0.472-1.296l0.472-0.216c0.166,0.176,0.296,0.401,0.392,0.676c0.096,0.275,0.144,0.556,0.144,0.844
		c0,0.629-0.186,1.123-0.556,1.48S6.246,44.495,5.6,44.495c-0.411,0-0.775-0.08-1.092-0.24c-0.317-0.16-0.564-0.384-0.74-0.672
		c-0.176-0.288-0.264-0.616-0.264-0.984c0-0.534,0.175-0.952,0.524-1.256c0.35-0.304,0.831-0.456,1.444-0.456H5.592z M4.312,43.411
		c0.203,0.21,0.488,0.345,0.856,0.404v-2.344c-0.378,0.032-0.667,0.143-0.864,0.332c-0.197,0.189-0.296,0.452-0.296,0.788
		S4.109,43.2,4.312,43.411z"/>
	<path fill="#666666" d="M7.152,34.471c0.288,0.304,0.461,0.707,0.52,1.208h0.88v0.56H7.68c-0.021,0.368-0.093,0.708-0.216,1.02
		c-0.123,0.312-0.293,0.585-0.512,0.82l-0.504-0.248c0.219-0.256,0.381-0.513,0.488-0.772c0.107-0.259,0.168-0.54,0.184-0.844H5.088
		c-0.096,0.368-0.197,0.672-0.304,0.912c-0.107,0.24-0.263,0.441-0.468,0.604c-0.205,0.163-0.476,0.244-0.812,0.244
		c-0.293,0-0.557-0.073-0.792-0.22c-0.234-0.146-0.425-0.351-0.572-0.612c-0.147-0.261-0.236-0.563-0.268-0.904H1v-0.56h0.88
		c0.027-0.31,0.102-0.604,0.224-0.884c0.123-0.28,0.283-0.519,0.48-0.716l0.504,0.248c-0.373,0.389-0.589,0.848-0.648,1.376h2.152
		c0.085-0.352,0.179-0.644,0.28-0.876c0.102-0.232,0.25-0.425,0.444-0.58c0.195-0.155,0.45-0.232,0.764-0.232
		C6.507,34.015,6.864,34.167,7.152,34.471z M4.104,37.023c0.144-0.187,0.264-0.456,0.36-0.808H2.44
		c0.032,0.341,0.14,0.608,0.324,0.8c0.184,0.192,0.423,0.288,0.716,0.288C3.752,37.303,3.96,37.209,4.104,37.023z M6.78,34.947
		c-0.173-0.178-0.401-0.268-0.684-0.268c-0.235,0-0.417,0.088-0.548,0.264c-0.13,0.176-0.241,0.43-0.332,0.76h1.888
		C7.062,35.378,6.954,35.125,6.78,34.947z"/>
</g>
<line fill="none" stroke="#38D4E0" stroke-width="0.5" stroke-miterlimit="10" stroke-dasharray="8,3" x1="11.123" y1="136.375" x2="260.89" y2="136.375"/>
<line fill="none" stroke="#000000" stroke-width="0.25" stroke-miterlimit="5" x1="81.449" y1="118.203" x2="81.449" y2="0.303"/>
<line fill="none" stroke="#000000" stroke-width="0.25" stroke-miterlimit="5" x1="131.83" y1="158.17" x2="131.83" y2="141.44"/>
<line fill="none" stroke="#000000" stroke-width="0.25" stroke-miterlimit="5" x1="211.997" y1="158.17" x2="211.997" y2="141.44"/>
<line fill="none" stroke="#000000" stroke-width="0.25" stroke-miterlimit="5" x1="81.475" y1="157.879" x2="81.475" y2="141.44"/>
<polyline fill="none" stroke="#000000" stroke-width="0.5" stroke-miterlimit="10" points="261.89,158.706 261.89,117.978 
	261.89,0.162 261.89,118.014 260.89,118.014 11.523,118.014 11.47,118.26 11.47,0 11.31,117.961 11.31,158.706 "/>
<g>
	<path fill="#666666" d="M272.901,71.58h-5.696v-3.6h0.544v2.952h1.984V68.14h0.551v2.792h2.072v-2.952h0.545V71.58z"/>
	<path fill="#666666" d="M270.464,62.884c0.237-0.182,0.532-0.272,0.884-0.272c0.496,0,0.879,0.165,1.148,0.496
		c0.27,0.331,0.404,0.797,0.404,1.4v2.368h-5.696v-2.288c0-0.581,0.13-1.033,0.388-1.356c0.259-0.322,0.625-0.484,1.1-0.484
		c0.305,0,0.567,0.079,0.789,0.236c0.221,0.158,0.385,0.377,0.491,0.66C270.063,63.318,270.227,63.065,270.464,62.884z
		 M269.733,66.228v-1.536c0-0.426-0.086-0.749-0.256-0.968c-0.172-0.219-0.422-0.328-0.752-0.328c-0.651,0-0.977,0.432-0.977,1.296
		v1.536H269.733z M272.104,63.576c-0.168-0.211-0.425-0.316-0.771-0.316c-0.699,0-1.049,0.435-1.049,1.304v1.664h2.072v-1.664
		C272.356,64.116,272.272,63.786,272.104,63.576z"/>
	<path fill="#666666" d="M272.901,61.428h-5.696v-0.656h5.696V61.428z"/>
	<path fill="#666666" d="M272.901,57.988h-5.137v1.984h-0.56V55.34h0.56v1.984h5.137V57.988z"/>
	<path fill="#666666" d="M267.205,54.54v-1.912c0-0.912,0.247-1.617,0.739-2.116c0.494-0.499,1.193-0.748,2.101-0.748
		c0.912,0,1.616,0.25,2.112,0.748s0.744,1.204,0.744,2.116v1.912H267.205z M272.34,52.667c0-0.736-0.191-1.289-0.576-1.66
		c-0.384-0.371-0.957-0.556-1.72-0.556c-1.521,0-2.28,0.739-2.28,2.216v1.216h4.576V52.667z"/>
	<path fill="#666666" d="M272.901,44.348l-1.465,0.624v2.976l1.465,0.632v0.68l-5.696-2.504V46.18l5.696-2.504V44.348z
		 M270.893,47.716v-2.512l-2.929,1.256L270.893,47.716z"/>
	<path fill="#666666" d="M270.18,40.636c-0.293,0.24-0.729,0.36-1.304,0.36c-0.571,0-1.003-0.12-1.296-0.36
		c-0.293-0.24-0.439-0.576-0.439-1.008s0.146-0.77,0.439-1.012s0.725-0.364,1.296-0.364c0.575,0,1.011,0.121,1.304,0.364
		s0.44,0.58,0.44,1.012S270.473,40.396,270.18,40.636z M272.901,39.02v0.632l-5.696-3.296v-0.632L272.901,39.02z M269.848,39.04
		c-0.205-0.125-0.529-0.188-0.972-0.188c-0.438,0-0.759,0.063-0.964,0.188c-0.205,0.125-0.309,0.321-0.309,0.588
		c0,0.261,0.104,0.456,0.309,0.584s0.526,0.192,0.964,0.192c0.442,0,0.767-0.064,0.972-0.192s0.309-0.323,0.309-0.584
		C270.157,39.361,270.053,39.165,269.848,39.04z M272.516,36.756c-0.293,0.24-0.728,0.36-1.304,0.36s-1.009-0.12-1.3-0.36
		c-0.291-0.24-0.436-0.576-0.436-1.008c0-0.432,0.145-0.77,0.436-1.012s0.724-0.364,1.3-0.364s1.011,0.121,1.304,0.364
		s0.44,0.58,0.44,1.012C272.957,36.18,272.809,36.516,272.516,36.756z M272.188,35.152c-0.202-0.125-0.527-0.188-0.976-0.188
		c-0.438,0-0.759,0.064-0.964,0.192s-0.309,0.326-0.309,0.592s0.104,0.462,0.309,0.588s0.526,0.188,0.964,0.188
		c0.442,0,0.767-0.063,0.972-0.188s0.309-0.321,0.309-0.588C272.493,35.476,272.391,35.277,272.188,35.152z"/>
</g>
<line fill="none" stroke="#000000" stroke-width="0.5" stroke-miterlimit="10" x1="259.888" y1="52.791" x2="261.888" y2="52.791"/>
<line fill="none" stroke="#000000" stroke-width="0.5" stroke-miterlimit="10" x1="259.892" y1="85.525" x2="261.892" y2="85.525"/>
<line fill="none" stroke="#000000" stroke-width="0.5" stroke-miterlimit="10" x1="259.888" y1="20.06" x2="261.888" y2="20.06"/>
</svg>
